<svg xmlns="http://www.w3.org/2000/svg" version="1.1" xmlns:xlink="http://www.w3.org/1999/xlink" xmlns:svgjs="http://svgjs.dev/svgjs" width="128" height="128" viewBox="0 0 128 128"><g transform="matrix(0.8046875,0,0,0.8046875,12.221578124999994,32.22338201669624)"><svg viewBox="0 0 96 59" data-background-color="#ffffff" preserveAspectRatio="xMidYMid meet" height="78" width="128" xmlns="http://www.w3.org/2000/svg" xmlns:xlink="http://www.w3.org/1999/xlink"><g id="tight-bounds" transform="matrix(1,0,0,1,0.25950000000000273,0.3701791149999991)"><svg viewBox="0 0 95.481 58.25964177" height="58.25964177" width="95.481"><g><svg viewBox="0 0 95.481 58.25964177" height="58.25964177" width="95.481"><g><svg viewBox="0 0 95.481 58.25964177" height="58.25964177" width="95.481"><g id="textblocktransform"><svg viewBox="0 0 95.481 58.25964177" height="58.25964177" width="95.481" id="textblock"><g><svg viewBox="0 0 95.481 58.25964177" height="58.25964177" width="95.481"><g><svg viewBox="0 0 95.481 58.25964177" height="58.25964177" width="95.481"><g><svg xmlns="http://www.w3.org/2000/svg" xmlns:xlink="http://www.w3.org/1999/xlink" version="1.1" x="0" y="0" viewBox="0 0 100 61.017" enable-background="new 0 0 100 61.017" xml:space="preserve" id="icon-0" width="95.481" height="58.25964177" class="icon-icon-0" data-fill-palette-color="accent"><polygon fill="#2a160c" points="94.492,0 5.508,0 0.989,9.039 99.011,9.039 " data-fill-palette-color="accent"></polygon><rect y="10.169" fill="#2a160c" width="100" height="2.26" data-fill-palette-color="accent"></rect><path fill="#2a160c" d="M43.799 61.017H56.228V13.559H43.799zM47.33 16.101H52.697V26.553H47.33zM47.33 31.92H52.697V42.372H47.33zM47.33 46.61H52.697V57.062H47.33z" data-fill-palette-color="accent"></path><path fill="#2a160c" d="M13.397 61.017H24.979V13.559H13.397zM16.752 30.79H22.119V41.242H16.752z" data-fill-palette-color="accent"></path><path fill="#2a160c" d="M74.979 61.017H86.561V13.559H74.979zM83.418 55.932H78.051V45.48H83.418zM78.051 14.971H83.418V25.423H78.051z" data-fill-palette-color="accent"></path><path fill="#2a160c" d="M87.691 60.169H98.99V13.559H87.691zM94.718 55.932H89.351V45.48H94.718zM89.351 14.971H94.718V25.423H89.351z" data-fill-palette-color="accent"></path><path fill="#2a160c" d="M57.359 61.017H73.849V13.559H57.359zM60.29 56.779H59.16V53.672H60.29zM62.549 56.779H61.419V53.672H62.549zM64.809 56.779H63.679V53.672H64.809zM67.069 56.779H65.939V53.672H67.069zM69.329 56.779H68.199V53.672H69.329zM71.589 56.779H70.459V53.672H71.589zM71.589 52.542H58.559V45.48H72.118L72.119 52.542zM59.16 25.141V22.034H60.29V25.141zM61.419 25.141V22.034H62.549V25.141zM63.679 25.141V22.034H64.809V25.141zM65.939 25.141V22.034H67.069V25.141zM68.199 25.141V22.034H69.329V25.141zM70.459 25.141V22.034H71.589V25.141zM58.559 13.841H72.118L72.119 20.903H58.559z" data-fill-palette-color="accent"></path><path fill="#2a160c" d="M26.109 61.017H42.669V13.559H26.109zM28.934 40.96V37.853H30.064V40.96zM31.193 40.96V37.853H32.323V40.96zM33.453 40.96V37.853H34.583V40.96zM35.713 40.96V37.853H36.843V40.96zM37.973 40.96V37.853H39.103V40.96zM40.233 40.96V37.853H41.363V40.96zM41.363 36.723H28.051V29.661H41.61V36.723z" data-fill-palette-color="accent"></path><path fill="#2a160c" d="M1.25 13.559V60.169H12.267V13.559zM10.819 41.242H5.452V30.79H10.819z" data-fill-palette-color="accent"></path></svg></g></svg></g></svg></g></svg></g></svg></g></svg></g><defs></defs></svg><rect width="95.481" height="58.25964177" fill="none" stroke="none" visibility="hidden"></rect></g></svg></g></svg>