<svg xmlns="http://www.w3.org/2000/svg" version="1.1" xmlns:xlink="http://www.w3.org/1999/xlink" xmlns:svgjs="http://svgjs.dev/svgjs" width="2000" height="520" viewBox="0 0 2000 520"><g transform="matrix(1,0,0,1,-1.2121212121212466,-1.6341715000746717)"><svg viewBox="0 0 396 103" data-background-color="#ffffff" preserveAspectRatio="xMidYMid meet" height="520" width="2000" xmlns="http://www.w3.org/2000/svg" xmlns:xlink="http://www.w3.org/1999/xlink"><g id="tight-bounds" transform="matrix(1,0,0,1,0.2400000000000091,0.32369166251478987)"><svg viewBox="0 0 395.52 102.35248171157572" height="102.35248171157572" width="395.52"><g><svg viewBox="0 0 572.3551696390173 148.1138046950934" height="102.35248171157572" width="395.52"><g transform="matrix(1,0,0,1,176.8351696390173,43.64152240218598)"><svg viewBox="0 0 395.52 60.83075989072144" height="60.83075989072144" width="395.52"><g id="textblocktransform"><svg viewBox="0 0 395.52 60.83075989072144" height="60.83075989072144" width="395.52" id="textblock"><g><svg viewBox="0 0 395.52 60.83075989072144" height="60.83075989072144" width="395.52"><g transform="matrix(1,0,0,1,0,0)"><svg width="395.52" viewBox="1.76 -36.62 241.26000000000002 37.11" height="60.83075989072144" data-palette-color="#883d1a"><path d="M1.76 0L1.76-2.69Q4.35-2.69 4.98-3.14 5.62-3.59 5.74-4.1 5.86-4.61 5.86-5.35L5.86-5.35 5.86-31.27Q5.86-32.86 5.32-33.25L5.32-33.25Q4.35-33.94 1.76-33.94L1.76-33.94 1.76-36.62 14.87-36.62Q30.64-36.62 33.84-26.27L33.84-26.27Q34.81-23.05 34.81-19.35 34.81-15.65 34.08-12.85 33.35-10.06 32.03-7.91L32.03-7.91Q29.52-3.83 25.13-1.92 20.75 0 15.36 0L15.36 0 1.76 0ZM11.35-2.71L15.89-2.71Q28.44-2.71 28.44-19.07L28.44-19.07Q28.44-26.05 24.98-30.11 21.51-34.18 14.65-34.18L14.65-34.18 11.35-34.18 11.35-2.71ZM38.91-12.5L38.91-12.5Q38.91-15.43 39.83-17.91 40.74-20.39 42.38-22.02L42.38-22.02Q45.6-25.24 50.95-25.24L50.95-25.24Q56.35-25.24 59.65-22.01 62.96-18.77 62.96-12.83 62.96-6.88 59.91-3.2 56.86 0.49 50.95 0.49L50.95 0.49Q45.04 0.49 41.98-3.09 38.91-6.67 38.91-12.5ZM50.95-2.44L50.95-2.44Q53.78-2.44 55.55-5.03 57.32-7.62 57.32-12.3L57.32-12.3Q57.32-19.85 53.51-21.73L53.51-21.73Q52.34-22.31 50.95-22.31L50.95-22.31Q46.43-22.31 45.07-16.85L45.07-16.85Q44.58-14.97 44.58-12.45L44.58-12.45Q44.58-7.62 46.35-5.03 48.12-2.44 50.95-2.44ZM67.16 0L67.16-2.69Q69.26-2.69 69.79-3.11 70.33-3.54 70.44-4.03 70.55-4.52 70.55-5.25L70.55-5.25 70.55-18.7Q70.55-20.46 70.25-21 69.94-21.53 68.6-21.53L68.6-21.53 67.11-21.53 67.11-24.22Q69.43-24.22 70.71-24.57 71.99-24.93 72.54-25.09 73.09-25.24 73.73-25.24L73.73-25.24Q74.97-25.24 75.4-24.51 75.83-23.78 75.83-22.12L75.83-22.12 75.83-21.63Q77.92-24.1 80.59-24.95L80.59-24.95Q81.54-25.24 82.49-25.24L82.49-25.24Q84.32-25.24 85.33-24.19 86.35-23.14 86.35-21.61 86.35-20.07 85.37-19.09 84.39-18.12 83-18.12L83-18.12Q81.64-18.12 80.74-19.09 79.85-20.07 79.95-21.53L79.95-21.53Q78.95-21.39 77.81-20.62 76.68-19.85 75.83-18.53L75.83-18.53 75.83-5.47Q75.83-4.54 75.98-3.99 76.14-3.44 76.84-3.06 77.53-2.69 81.03-2.69L81.03-2.69 81.03 0 67.16 0ZM121.38-25.22L121.38-25.22Q128.56-25.22 128.56-14.75L128.56-14.75 128.56-5.3Q128.56-3.69 129.02-3.19 129.48-2.69 131.56-2.69L131.56-2.69 131.56 0 120.01 0 120.01-2.69Q122.23-2.69 122.69-3.14 123.14-3.59 123.21-4.08 123.28-4.57 123.28-5.3L123.28-5.3 123.28-14.43Q123.28-17.85 122.75-19.1 122.21-20.36 121.35-20.97 120.5-21.58 119.43-21.58L119.43-21.58Q117.47-21.58 115.69-20.8 113.91-20.02 112.86-18.75L112.86-18.75Q113.2-16.97 113.2-14.75L113.2-14.75 113.2-5.3Q113.2-3.69 113.66-3.19 114.13-2.69 116.2-2.69L116.2-2.69 116.2 0 104.66 0 104.66-2.69Q106.88-2.69 107.33-3.14 107.78-3.59 107.85-4.08 107.93-4.57 107.93-5.3L107.93-5.3 107.93-14.43Q107.93-17.85 107.39-19.1 106.85-20.36 106-20.97 105.14-21.58 104.07-21.58L104.07-21.58Q102.21-21.58 100.51-20.87 98.8-20.17 97.7-18.99L97.7-18.99 97.7-5.25Q97.7-3.71 98.19-3.32L98.19-3.32Q99.06-2.69 101.38-2.69L101.38-2.69 101.38 0 89.01 0 89.01-2.69Q91.11-2.69 91.64-3.11 92.18-3.54 92.3-4.03 92.42-4.52 92.42-5.25L92.42-5.25 92.42-18.55Q92.42-20.31 92.12-20.85 91.81-21.39 90.45-21.39L90.45-21.39 88.96-21.39 88.96-24.07Q91.25-24.07 92.58-24.43 93.91-24.78 94.47-24.94 95.04-25.1 95.7-25.1L95.7-25.1Q96.94-25.1 97.32-24.37 97.7-23.63 97.7-21.97L97.7-21.97 97.7-21.92Q100.19-24.1 103.75-24.95L103.75-24.95Q104.92-25.22 106.02-25.22L106.02-25.22Q110.39-25.22 112.1-21.31L112.1-21.31Q114.84-23.85 118.69-24.85L118.69-24.85Q120.06-25.22 121.38-25.22ZM134.71 0L134.71-2.69Q137.07-2.69 137.76-3.13 138.44-3.56 138.64-4.06 138.83-4.57 138.83-5.3L138.83-5.3 138.83-31.27Q138.83-32.79 137.93-33.36 137.03-33.94 134.73-33.94L134.73-33.94 134.73-36.62 161.29-36.62 162.25-27.76 158.71-27.73 158.05-30.49Q157.56-32.47 157.05-32.98L157.05-32.98Q156.14-33.89 153.99-33.89L153.99-33.89 144.33-33.89 144.33-19.68 149.06-19.68Q151.82-19.68 152.44-20.04 153.07-20.41 153.3-21.09 153.53-21.78 153.53-23.07L153.53-23.07 156.7-23.07 156.7-13.62 153.53-13.62Q153.53-15.89 152.64-16.44 151.75-16.99 149.06-16.99L149.06-16.99 144.33-16.99 144.33-2.69 154.7-2.69Q157.53-2.69 158.46-4.59L158.46-4.59Q158.75-5.18 159.05-5.81L159.05-5.81 160.15-8.81 163.69-8.81 162.73 0 134.71 0ZM188.93-16.8L188.93-5.83Q188.93-2.93 190.08-2.93L190.08-2.93Q191.17-2.93 191.69-3.67 192.2-4.42 192.2-6.37L192.2-6.37 194.76-6.37Q194.79-6.05 194.79-5.37L194.79-5.37Q194.79-3.17 193.69-1.56L193.69-1.56Q192.35 0.49 189.42 0.49L189.42 0.49Q187.51 0.49 186.17-0.59 184.83-1.66 184.31-3.42L184.31-3.42Q180.77 0.49 175.35 0.49L175.35 0.49Q172.38 0.49 170.17-1.26 167.96-3 167.96-6.13L167.96-6.13Q167.96-11.55 175.96-14.14L175.96-14.14Q181.04-15.75 182.04-16.37 183.04-16.99 183.35-17.64 183.65-18.29 183.65-19.09L183.65-19.09Q183.65-20.53 182.24-21.5 180.82-22.46 178.55-22.46 176.28-22.46 174.55-21.24L174.55-21.24Q175.77-20.34 175.77-18.92 175.77-17.5 174.83-16.65 173.89-15.8 172.56-15.8 171.23-15.8 170.36-16.6 169.49-17.41 169.49-18.85L169.49-18.85Q169.49-21.7 172.38-23.47 175.26-25.24 179.38-25.24L179.38-25.24Q186.76-25.24 188.39-20.46L188.39-20.46Q188.93-18.87 188.93-16.8L188.93-16.8ZM178.16-11.91Q176.01-10.99 174.94-9.53 173.86-8.08 173.86-6.37 173.86-4.66 174.79-3.78 175.72-2.91 177.11-2.91L177.11-2.91Q179.94-2.91 181.8-4.9 183.65-6.88 183.65-10.45L183.65-10.45 183.65-14.21Q182.09-13.4 180.35-12.74 178.6-12.08 178.16-11.91L178.16-11.91ZM209.8-21.51L209.8-21.51Q208.55-22.75 205.72-22.75 202.89-22.75 201.89-20.7L201.89-20.7Q201.62-20.12 201.62-19.37 201.62-18.63 202.21-17.93 202.79-17.24 203.72-16.61 204.65-15.99 205.81-15.41 206.97-14.82 208.21-14.14 209.46-13.45 210.85-12.7L210.85-12.7Q215.95-9.91 215.95-6.53 215.95-3.15 213.32-1.33 210.68 0.49 206.32 0.49 201.96 0.49 199.13-1.07 196.3-2.64 196.3-5.1L196.3-5.1Q196.3-6.45 197.19-7.37 198.08-8.3 199.46-8.3 200.84-8.3 201.74-7.43 202.65-6.57 202.65-5.37 202.65-4.17 201.82-3.34L201.82-3.34Q203.77-2.22 206.66-2.22 209.56-2.22 210.73-3.56L210.73-3.56Q211.22-4.1 211.22-4.96L211.22-4.96Q211.22-6.98 206.72-9.18L206.72-9.18Q203.6-10.72 202.04-11.6L202.04-11.6Q197.03-14.43 197.03-18.43L197.03-18.43Q197.03-21.51 199.58-23.36 202.13-25.22 206.09-25.22 210.04-25.22 212.74-23.74 215.44-22.27 215.44-19.92L215.44-19.92Q215.44-18.55 214.78-17.9L214.78-17.9Q213.63-16.75 212.58-16.75L212.58-16.75Q210.87-16.75 210.01-17.61 209.14-18.48 209.14-19.6 209.14-20.73 209.8-21.51ZM242.98-11.25L242.98-11.25 226.03-11.25Q226.03-7.06 228.02-4.76 230.01-2.47 232.94-2.47L232.94-2.47Q236.87-2.47 238.58-5.71L238.58-5.71 242.22-5.74Q241.66-3.13 239.01-1.32 236.36 0.49 231.87 0.49 227.38 0.49 224.1-2.29L224.1-2.29Q220.2-5.64 220.2-11.72 220.2-17.8 223.31-21.52 226.42-25.24 232.23-25.24L232.23-25.24Q239.88-25.24 242.12-19.09L242.12-19.09Q243.02-16.63 243.02-14.43 243.02-12.23 242.98-11.25ZM237.34-14.92L237.34-14.92Q237.34-22.39 232.26-22.39L232.26-22.39Q229.4-22.39 227.8-20.17 226.2-17.94 226.06-14.01L226.06-14.01 237.31-14.01Q237.34-14.48 237.34-14.92Z" opacity="1" transform="matrix(1,0,0,1,0,0)" fill="#883d1a" class="wordmark-text-0" data-fill-palette-color="primary" id="text-0"></path></svg></g></svg></g></svg></g></svg></g><g><svg viewBox="0 0 148.1138046950934 148.1138046950934" height="148.1138046950934" width="148.1138046950934"><g><svg></svg></g><g id="icon-0"><svg viewBox="0 0 148.1138046950934 148.1138046950934" height="148.1138046950934" width="148.1138046950934"><g><path d="M0 74.057c0-40.901 33.156-74.057 74.057-74.057 40.901 0 74.057 33.156 74.057 74.057 0 40.901-33.156 74.057-74.057 74.057-40.901 0-74.057-33.156-74.057-74.057zM74.057 142.628c37.871 0 68.571-30.7 68.571-68.571 0-37.871-30.7-68.571-68.571-68.571-37.871 0-68.571 30.7-68.571 68.571 0 37.871 30.7 68.571 68.571 68.571z" data-fill-palette-color="accent" fill="#2a160c" stroke="transparent"></path></g><g transform="matrix(1,0,0,1,31.200309265622757,47.90709494674917)"><svg viewBox="0 0 85.71318616384788 52.29961480159506" height="52.29961480159506" width="85.71318616384788"><g><svg xmlns="http://www.w3.org/2000/svg" xmlns:xlink="http://www.w3.org/1999/xlink" version="1.1" x="0" y="0" viewBox="0 0 100 61.017" enable-background="new 0 0 100 61.017" xml:space="preserve" width="85.71318616384788" height="52.29961480159506" class="icon-cg-0" data-fill-palette-color="accent" id="cg-0"><polygon fill="#2a160c" points="94.492,0 5.508,0 0.989,9.039 99.011,9.039 " data-fill-palette-color="accent"></polygon><rect y="10.169" fill="#2a160c" width="100" height="2.26" data-fill-palette-color="accent"></rect><path fill="#2a160c" d="M43.799 61.017h12.429V13.559H43.799V61.017zM47.33 16.101h5.367v10.452H47.33V16.101zM47.33 31.92h5.367v10.452H47.33V31.92zM47.33 46.61h5.367v10.452H47.33V46.61z" data-fill-palette-color="accent"></path><path fill="#2a160c" d="M13.397 61.017h11.582V13.559H13.397V61.017zM16.752 30.79h5.367v10.452h-5.367V30.79z" data-fill-palette-color="accent"></path><path fill="#2a160c" d="M74.979 61.017h11.582V13.559H74.979V61.017zM83.418 55.932h-5.367V45.48h5.367V55.932zM78.051 14.971h5.367v10.452h-5.367V14.971z" data-fill-palette-color="accent"></path><path fill="#2a160c" d="M87.691 60.169H98.99v-46.61H87.691V60.169zM94.718 55.932h-5.367V45.48h5.367V55.932zM89.351 14.971h5.367v10.452h-5.367V14.971z" data-fill-palette-color="accent"></path><path fill="#2a160c" d="M57.359 61.017h16.49V13.559h-16.49V61.017zM60.29 56.779h-1.13v-3.107h1.13V56.779zM62.549 56.779h-1.13v-3.107h1.13V56.779zM64.809 56.779h-1.13v-3.107h1.13V56.779zM67.069 56.779h-1.13v-3.107h1.13V56.779zM69.329 56.779h-1.13v-3.107h1.13V56.779zM71.589 56.779h-1.13v-3.107h1.13V56.779zM71.589 52.542h-1.13-1.13-1.13-1.13-1.13-1.13-1.13-1.13-1.13-1.13-1.13-0.6V45.48h13.559l0.001 7.062H71.589zM59.16 25.141v-3.107h1.13v3.107H59.16zM61.419 25.141v-3.107h1.13v3.107H61.419zM63.679 25.141v-3.107h1.13v3.107H63.679zM65.939 25.141v-3.107h1.13v3.107H65.939zM68.199 25.141v-3.107h1.13v3.107H68.199zM70.459 25.141v-3.107h1.13v3.107H70.459zM58.559 13.841h13.559l0.001 7.062h-0.53-1.13-1.13-1.13-1.13-1.13-1.13-1.13-1.13-1.13-1.13-1.13-0.6L58.559 13.841 58.559 13.841z" data-fill-palette-color="accent"></path><path fill="#2a160c" d="M26.109 61.017h16.56V13.559h-16.56V61.017zM28.934 40.96v-3.107h1.13v3.107H28.934zM31.193 40.96v-3.107h1.13v3.107H31.193zM33.453 40.96v-3.107h1.13v3.107H33.453zM35.713 40.96v-3.107h1.13v3.107H35.713zM37.973 40.96v-3.107h1.13v3.107H37.973zM40.233 40.96v-3.107h1.13v3.107H40.233zM41.363 36.723h-1.13-1.13-1.13-1.13-1.13-1.13-1.13-1.13-1.13-1.13-1.13-0.882v-7.062H41.61v7.062H41.363z" data-fill-palette-color="accent"></path><path fill="#2a160c" d="M1.25 13.559v46.61h11.017v-46.61C12.267 13.559 1.25 13.559 1.25 13.559zM10.819 41.242H5.452V30.79h5.367V41.242z" data-fill-palette-color="accent"></path></svg></g></svg></g></svg></g></svg></g></svg></g><defs></defs></svg><rect width="395.52" height="102.35248171157572" fill="none" stroke="none" visibility="hidden"></rect></g></svg></g></svg>